<svg xmlns="http://www.w3.org/2000/svg" width="137" height="121.578" viewBox="0 0 137 121.578">
  <g id="Logo_Napay" data-name="Logo Napay" transform="translate(-620.434 -188.422)">
    <g id="Group_63" data-name="Group 63" transform="translate(437.808 134.613)">
      <circle id="Ellipse_1" data-name="Ellipse 1" cx="29.964" cy="29.964" r="29.964" transform="translate(220.614 53.809)" fill="#ffe171"/>
      <g id="Group_62" data-name="Group 62" transform="translate(234.142 68.8)">
        <path id="Path_1202" data-name="Path 1202" d="M252.29,92.042a15.94,15.94,0,0,0,7.354-2.2l-10.8-6.483Z" transform="translate(-233.587 -68.219)" fill="#f7931e"/>
        <path id="Path_1203" data-name="Path 1203" d="M266.722,76.749a7.97,7.97,0,0,0-3.517-6,12.143,12.143,0,0,0-7.16-2.238H243.01l-9.129,33.064,15.252-17.924,10.8,6.483A14.629,14.629,0,0,0,266.722,76.749Z" transform="translate(-233.881 -68.511)" fill="#fff"/>
      </g>
    </g>
    <g id="Group_66" data-name="Group 66" transform="translate(449.802 -83.659)">
      <text id="Napay" transform="translate(170.632 382.659)" fill="#262626" font-size="44.392" font-family="NeutrifPro-Bold, Neutrif Pro" font-weight="700" letter-spacing="0.02em"><tspan x="0" y="0">Napay</tspan></text>
    </g>
  </g>
</svg>
